<?xml version="1.0" encoding="utf-8"?>
<!-- Generator: Adobe Illustrator 22.1.0, SVG Export Plug-In . SVG Version: 6.00 Build 0)  -->
<svg version="1.1" id="Layer_1" xmlns="http://www.w3.org/2000/svg" xmlns:xlink="http://www.w3.org/1999/xlink" x="0px" y="0px"
	 viewBox="0 0 140 90" style="enable-background:new 0 0 140 90;" xml:space="preserve">
<style type="text/css">
	.st0{fill:#FFFFFF;}
</style>
<path id="path2" class="st0" d="M1.5,41.6c-0.4,0-0.5,0.2-0.5,0.6c0,0.3,0.2,0.5,0.5,0.5h15.2c0.5,0,0.8-0.2,0.8-0.6
	c0-0.3-0.4-0.5-1.1-0.5c-0.6,0-1.1-0.1-1.5-0.4c-0.4-0.3-0.6-0.7-0.6-1.3c0-0.2,0-0.4,0-0.5l1.3-7.6h3.8c4,0,7-0.8,8.7-2.5
	c1.8-1.6,2.7-3.5,2.7-5.7c0-3.8-2.5-5.7-7.6-5.7H6.1c-0.4,0-0.6,0.1-0.6,0.4c0,0.3,0.2,0.4,0.6,0.4c0.8,0,1.3,0.1,1.6,0.4
	c0.3,0.3,0.4,0.7,0.4,1.3c0,0.3,0,0.5-0.1,0.9C8,21.6,7.9,21.8,7.9,22L4.6,38.6c-0.1,1.1-0.4,1.9-0.9,2.3
	C3.3,41.3,2.6,41.6,1.5,41.6L1.5,41.6z M18,20.9c0.1-0.6,0.4-1.1,0.8-1.5c0.4-0.4,0.8-0.7,1.3-0.7c0.4,0,0.8,0.1,1,0.4
	c0.3,0.3,0.4,0.7,0.4,1.3c0,0.3-0.1,0.8-0.2,1.2l-1,6c-0.1,1-0.4,1.7-0.8,2.2c-0.4,0.5-1,0.8-1.7,0.8H16L18,20.9z M32,42.6h5.6
	c0.3,0,0.6,0,0.8-0.1c0.2-0.1,0.3-0.3,0.3-0.7c0.1-1.3,0.4-2.8,0.7-4.7c0.4-1.8,0.7-3.3,0.9-4.4c0.2-1.1,0.6-1.9,1.1-2.4
	c0.5-0.5,0.9-0.8,1.2-0.8c0.1,0,0.2,0.1,0.2,0.2l-0.1,0.3c-0.3,0.6-0.4,1.2-0.4,1.8c0,0.8,0.3,1.4,0.9,1.9c0.6,0.5,1.4,0.7,2.3,0.7
	c1.3,0,2.4-0.4,3.3-1.3c0.9-0.9,1.3-2,1.3-3.3c0-1-0.3-1.9-0.9-2.5c-0.6-0.7-1.5-1-2.7-1c-1.4,0-2.5,0.4-3.4,1.2
	c-0.9,0.8-1.8,1.9-2.7,3.1l1-4.1c0-0.2,0.1-0.3,0.1-0.4c0-0.2-0.1-0.3-0.3-0.3c-0.1,0-0.3,0-0.5,0.1c-0.2,0.1-0.6,0.2-1.1,0.5
	c-0.5,0.3-1.7,0.5-3.5,0.7c-1.8,0.2-3.2,0.3-4,0.3c-0.4,0-0.7,0-0.9,0.1c-0.2,0.1-0.3,0.2-0.3,0.3c0,0.3,0.3,0.4,0.9,0.4
	c0.3,0.1,0.6,0.2,0.9,0.2c0.5,0.2,0.7,0.6,0.7,1.3c0,0.1,0,0.3-0.1,0.7l-2.3,11.4c0,0.2-0.1,0.3-0.1,0.3c0,0.2,0.1,0.3,0.3,0.4
	S31.6,42.6,32,42.6L32,42.6z M60.4,42.9c2.9,0,5.6-0.9,8-2.6c2.4-1.7,3.6-4,3.6-7c0-2-0.7-3.7-2.2-5.2C68.4,26.8,66,26,62.4,26
	c-3.1,0-5.9,0.7-8.4,2.2c-2.5,1.5-3.7,3.7-3.7,6.7c0,2.3,0.9,4.2,2.6,5.7C54.6,42.2,57.1,42.9,60.4,42.9z M60.1,30.4
	c0.5-2.4,1.4-3.6,2.8-3.6c0.5,0,0.9,0.2,1.1,0.5c0.2,0.3,0.3,0.8,0.3,1.3c0,0.2,0,0.4,0,0.6c0,0.2-0.1,0.4-0.1,0.5l-1.8,8.4
	c-0.3,1.5-0.8,2.4-1.3,3c-0.5,0.5-1,0.8-1.5,0.8c-0.9-0.2-1.3-0.8-1.3-1.9c0-0.5,0-1,0.1-1.5c0.1-0.4,0.2-0.8,0.2-1L60.1,30.4z
	 M78.6,42.9c1.7,0,3.2-0.6,4.6-1.8c1.4-1.2,2.3-2.5,2.8-3.9c0.1-0.4,0-0.7-0.3-0.7c-0.2,0-0.4,0.2-0.7,0.7c-0.3,0.5-0.7,1-1.2,1.5
	c-0.5,0.5-1,0.8-1.4,0.8c-0.5,0-0.8-0.4-0.8-1.3L86,17.6c0.1-0.3,0.2-0.6,0.2-0.7c0-0.2-0.1-0.3-0.3-0.3c-0.1,0-0.3,0-0.5,0.1
	c-0.2,0.1-0.4,0.2-0.7,0.3c-0.8,0.3-2.2,0.7-4.3,0.9c-2.1,0.3-3.9,0.4-5.3,0.4c-0.5,0-0.8,0.2-0.8,0.6c0,0.4,0.3,0.6,0.8,0.6
	c0.8,0,1.4,0.1,1.7,0.4c0.3,0.2,0.4,0.6,0.4,1.1c0,0.3,0,0.6-0.1,1l-2.8,14.1c-0.1,0.7-0.2,1.2-0.2,1.5c0,0.3,0,0.7,0,1.2
	c0,1.3,0.3,2.3,1,3C75.7,42.5,76.9,42.9,78.6,42.9L78.6,42.9z M96.9,42.9c2.9,0,5.6-0.9,8-2.6c2.4-1.7,3.6-4,3.6-7
	c0-2-0.7-3.7-2.2-5.2c-1.4-1.4-3.9-2.2-7.5-2.2c-3.1,0-5.9,0.7-8.4,2.2C88,29.8,86.8,32,86.8,35c0,2.3,0.9,4.2,2.6,5.7
	C91.1,42.2,93.6,42.9,96.9,42.9L96.9,42.9z M96.6,30.4c0.5-2.4,1.4-3.6,2.8-3.6c0.5,0,0.9,0.2,1.1,0.5c0.2,0.3,0.3,0.8,0.3,1.3
	c0,0.2,0,0.4,0,0.6c0,0.2-0.1,0.4-0.1,0.5l-1.8,8.4c-0.3,1.5-0.8,2.4-1.3,3c-0.5,0.5-1,0.8-1.5,0.8c-0.9-0.2-1.3-0.8-1.3-1.9
	c0-0.5,0-1,0.1-1.5c0.1-0.4,0.2-0.8,0.2-1L96.6,30.4z M110.8,42.6h4.6c0.6,0,0.9-0.1,1.1-0.2c0.2-0.1,0.3-0.5,0.4-1.2l1.5-7.6
	c0.1-1,0.4-1.8,0.9-2.6c0.5-0.8,0.9-1.2,1.4-1.2c0.6,0,0.8,0.3,0.8,1c0,0.3,0,0.6-0.1,1c-0.1,0.3-0.1,0.7-0.2,1l-1.8,7.9
	c-0.1,0.6-0.2,1-0.2,1.2c0,0.4,0.3,0.7,0.9,0.7h4.3c0.6,0,1-0.1,1.1-0.2c0.2-0.1,0.3-0.4,0.4-0.8l1.5-7.6c0.2-1,0.5-2,0.8-2.8
	c0.4-0.8,0.9-1.3,1.4-1.3c0.5,0,0.7,0.4,0.7,1.2c0,0.5-0.1,1-0.3,1.5l-1,5.2c-0.1,0.6-0.2,1.1-0.2,1.6c0,1.3,0.4,2.3,1.1,3
	c0.7,0.6,1.6,1,2.6,1c1.2,0,2.4-0.6,3.6-1.7c1.2-1.1,2-2.5,2.5-4c0.2-0.6,0.1-0.8-0.3-0.8c-0.2,0-0.4,0.3-0.5,0.8
	c-0.2,0.7-0.5,1.2-0.8,1.6c-0.3,0.4-0.6,0.6-0.9,0.6c-0.3,0-0.5-0.3-0.5-0.9c0-0.3,0.1-0.7,0.2-1.3l1.3-7.1c0-0.2,0-0.5,0-0.9
	c0-1.1-0.2-1.9-0.7-2.4c-0.5-0.5-1.3-0.8-2.4-0.8c-1.2,0-2.4,0.4-3.5,1.3c-1.2,0.9-2.1,1.9-2.8,3.1c0-1.6-0.2-2.7-0.7-3.4
	c-0.5-0.7-1.2-1-2.1-1c-1.2,0-2.4,0.4-3.5,1.3c-1.1,0.9-2.1,1.8-2.8,2.8l0.8-2.7c0.1-0.3,0.1-0.5,0.1-0.7c0-0.5-0.2-0.7-0.5-0.7H119
	c-1.3,0.5-2.4,0.8-3.5,1c-1.1,0.1-2.4,0.2-4.1,0.2c-0.5,0-0.7,0.1-0.7,0.4c0,0.3,0.2,0.4,0.7,0.4c0.4,0,0.7,0.1,0.8,0.3
	c0.2,0.2,0.2,0.4,0.2,0.8c0,0.2,0,0.4,0,0.7c0,0.3,0,0.4,0,0.4l-2,10.6c-0.2,0.6-0.2,1-0.2,1.1C110.1,42.5,110.3,42.6,110.8,42.6
	L110.8,42.6z M51,72.9c3.5,0,6.3-1.6,8.6-4.7c2.2-3.1,3.3-6.2,3.3-9.2c0-0.8-0.2-1.4-0.6-2.1c-0.4-0.6-1-0.9-1.7-0.9
	c-1.1,0-1.9,0.4-2.6,1.3c-0.6,0.9-1,1.8-1,2.7c0,0.6,0.2,1.2,0.5,1.7c0.3,0.5,0.7,0.7,1.1,0.7c0.3,0,0.6-0.1,0.8-0.4
	c0.2-0.2,0.4-0.4,0.5-0.4c0.2,0,0.3,0.1,0.4,0.4c0.1,0.3,0.1,0.5,0.1,0.9c0,0.3-0.1,1-0.3,1.9c-0.2,1-0.8,2-1.7,3.1
	c-0.9,1.1-1.9,1.6-2.9,1.6c-0.6,0-1-0.2-1.2-0.5c-0.2-0.4-0.4-0.8-0.4-1.5c0-0.3,0-0.7,0.1-1l1.8-9c0-0.2,0.1-0.4,0.2-0.7
	c0.1-0.3,0.1-0.5,0.1-0.6c0-0.2-0.1-0.2-0.3-0.2c-0.2,0-0.6,0.1-1.2,0.4c-0.7,0.3-1.9,0.5-3.6,0.7c-1.7,0.2-3.5,0.3-5.4,0.3
	c-0.5,0-0.7,0.2-0.7,0.6c0,0.4,0.2,0.6,0.7,0.6c0.7,0,1.2,0.1,1.6,0.3c0.3,0.2,0.5,0.6,0.5,1.3c0,0.2,0,0.4,0,0.6l-1.5,6.5
	c-0.2,0.9-0.3,1.5-0.3,2.1c0,1.4,0.4,2.3,1.3,2.8C48.1,72.6,49.3,72.9,51,72.9L51,72.9z M73.8,72.9c2.9,0,5.6-0.9,8-2.6
	c2.4-1.7,3.6-4,3.6-7c0-2-0.7-3.7-2.2-5.2c-1.4-1.4-3.9-2.2-7.5-2.2c-3.1,0-5.9,0.7-8.4,2.2c-2.5,1.5-3.7,3.7-3.7,6.7
	c0,2.3,0.9,4.2,2.6,5.7C68,72.2,70.5,72.9,73.8,72.9L73.8,72.9z M73.6,60.4c0.5-2.4,1.4-3.6,2.8-3.6c0.5,0,0.9,0.2,1.1,0.5
	c0.2,0.3,0.3,0.8,0.3,1.3c0,0.2,0,0.4,0,0.6c0,0.2-0.1,0.4-0.1,0.5l-1.8,8.4c-0.3,1.5-0.8,2.4-1.3,3c-0.5,0.5-1,0.8-1.5,0.8
	c-0.9-0.2-1.3-0.8-1.3-1.9c0-0.5,0-1,0.1-1.5c0.1-0.4,0.2-0.8,0.2-1L73.6,60.4z M92.6,72.9c0.2,0,0.4,0,0.7,0c1.2,0,2.3-0.3,3.1-0.9
	c0.8-0.6,1.5-1.5,2-2.6c0,1,0.3,1.8,1,2.5c0.6,0.7,1.7,1,3.1,1c1.5,0,2.9-0.4,4.1-1.1c1.2-0.8,2-1.7,2.6-2.8
	c0.6-1.1,0.8-1.8,0.8-2.1c0-0.2-0.1-0.3-0.2-0.3c-0.2,0-0.6,0.4-1.1,1.3c-0.5,0.9-0.9,1.4-1.2,1.7s-0.5,0.4-0.9,0.4
	c-0.5,0-0.8-0.3-0.8-0.9c0-0.3,0-0.6,0.1-0.9c0.1-0.4,0.1-0.7,0.2-0.9l4.1-19.6c0-0.3,0.1-0.5,0.1-0.6c0-0.4-0.1-0.6-0.4-0.6
	c-0.2,0-0.6,0.1-1.1,0.4c-0.6,0.3-1.7,0.6-3.5,1c-1.8,0.4-3.3,0.6-4.6,0.6c-0.3,0-0.4,0-0.5,0h-0.3c-0.4,0-0.5,0.1-0.5,0.3
	c0,0.2,0.3,0.4,0.8,0.6c0.7,0.1,1.2,0.3,1.6,0.6c0.3,0.3,0.5,0.7,0.5,1.3c0,0.2,0,0.4,0,0.6l-1.3,6.5c-0.1-0.8-0.5-1.4-1.2-1.8
	c-0.7-0.4-1.4-0.7-2.1-0.7c-2.5,0-4.9,1-7.2,3c-2.3,2-3.5,4.4-3.5,7.1c0,2.1,0.6,3.8,1.8,5.1C89.8,72.3,91.1,72.9,92.6,72.9
	L92.6,72.9z M94.4,63.4c0.5-1.5,1-3.1,1.5-4.6c0.6-1.2,1.3-1.8,2.1-1.7c0.7,0,1.1,0.7,1.1,2c0,0.4-0.1,1.6-0.4,3.4
	c-0.2,1.9-0.8,3.8-1.6,6c-0.8,2.1-1.7,3.1-2.7,3c-0.9-0.2-1.4-0.8-1.4-1.9c0-0.3,0-0.7,0.1-1.3c0.1-0.5,0.2-1.3,0.5-2.2
	C93.9,65.2,94.1,64.2,94.4,63.4z M117.6,72.6c1.1,0,2.1-0.3,3-1c0.9-0.7,1.6-1.6,2.1-2.8c0.2,1.1,0.5,2,1.1,2.7
	c0.5,0.7,1.5,1.1,3,1.1c1.5,0,2.9-0.6,4.3-1.7c1.4-1.1,2.3-2.6,2.8-4.3c0.2-0.3,0.1-0.5-0.3-0.5c-0.2,0-0.4,0.2-0.5,0.5
	c-0.4,0.7-0.7,1.4-1.1,1.9c-0.4,0.5-0.8,0.8-1.2,0.8c-0.3,0-0.6-0.1-0.7-0.2c-0.1-0.1-0.1-0.4-0.1-0.7c0-0.3,0-0.6,0-0.7l2-10.6
	c0-0.3,0-0.5,0-0.6c0-0.3-0.2-0.5-0.5-0.5h-5.3c-0.4,0-0.7,0-0.9,0.1c-0.2,0.1-0.4,0.3-0.4,0.7v0.8c-0.4-0.6-0.8-1.1-1.4-1.4
	c-0.6-0.3-1.2-0.5-1.9-0.5c-2.8,0-5.2,1-7.3,2.9c-2.1,1.9-3.1,4.4-3.1,7.5c0,2.1,0.6,3.8,1.9,4.9C114.5,72.1,116,72.6,117.6,72.6
	L117.6,72.6z M119,60.1c0.3-0.9,0.6-1.6,1-2c0.4-0.5,0.8-0.7,1.3-0.7c0.6,0,0.9,0.2,1,0.6c0.1,0.4,0.2,1,0.2,1.8
	c0,0.8-0.2,2-0.5,3.7c-0.3,1.7-0.7,3.1-1.2,4.2c-0.5,1.1-1,2-1.6,2.8c-0.6,0.7-1.1,1.1-1.6,1.1c-0.4,0-0.7-0.1-0.8-0.4
	c-0.2-0.3-0.2-0.7-0.2-1.2c0-0.3,0-0.6,0.1-1c0.1-0.4,0.1-0.9,0.3-1.6c0.1-0.7,0.4-1.8,0.8-3.4C118.2,62.3,118.6,61.1,119,60.1
	L119,60.1z"/>
</svg>
