<?xml version="1.0" encoding="UTF-8" standalone="no"?>
<!-- Generator: Adobe Illustrator 17.1.0, SVG Export Plug-In . SVG Version: 6.00 Build 0)  -->

<svg
   xmlns:dc="http://purl.org/dc/elements/1.1/"
   xmlns:cc="http://creativecommons.org/ns#"
   xmlns:rdf="http://www.w3.org/1999/02/22-rdf-syntax-ns#"
   xmlns:svg="http://www.w3.org/2000/svg"
   xmlns="http://www.w3.org/2000/svg"
   xmlns:xlink="http://www.w3.org/1999/xlink"
   xmlns:sodipodi="http://sodipodi.sourceforge.net/DTD/sodipodi-0.dtd"
   xmlns:inkscape="http://www.inkscape.org/namespaces/inkscape"
   version="1.1"
   id="studio77-logo"
   x="0px"
   y="0px"
   viewBox="174.3 0 841.9 841.9"
   enable-background="new 174.3 0 841.9 841.9"
   xml:space="preserve"
   sodipodi:docname="web-dizajn-beograd-studio77.svg"
   inkscape:version="0.92.4 (5da689c313, 2019-01-14)"><metadata
   id="metadata29"><rdf:RDF><cc:Work
       rdf:about=""><dc:format>image/svg+xml</dc:format><dc:type
         rdf:resource="http://purl.org/dc/dcmitype/StillImage" /></cc:Work></rdf:RDF></metadata><defs
   id="defs27"><linearGradient
     inkscape:collect="always"
     id="linearGradient840"><stop
       style="stop-color:#1bbab5;stop-opacity:1;"
       offset="0"
       id="stop836" /><stop
       style="stop-color:#1bbab5;stop-opacity:0;"
       offset="1"
       id="stop838" /></linearGradient><linearGradient
     inkscape:collect="always"
     xlink:href="#linearGradient840"
     id="linearGradient842"
     x1="266.2"
     y1="496.15"
     x2="924.6"
     y2="496.15"
     gradientUnits="userSpaceOnUse" /></defs><sodipodi:namedview
   pagecolor="#2fa6de"
   bordercolor="#666666"
   borderopacity="1"
   objecttolerance="10"
   gridtolerance="10"
   guidetolerance="10"
   inkscape:pageopacity="0"
   inkscape:pageshadow="2"
   inkscape:window-width="1366"
   inkscape:window-height="706"
   id="namedview25"
   showgrid="false"
   inkscape:zoom="0.28031832"
   inkscape:cx="420.95001"
   inkscape:cy="420.95001"
   inkscape:window-x="-8"
   inkscape:window-y="-8"
   inkscape:window-maximized="1"
   inkscape:current-layer="studio77-logo" />
<g
   id="g4"
   style="fill:#2fa6de;fill-opacity:1">
	<path
   fill="#2fa6de"
   d="M266.2,215.1L266.2,215.1l72.6,125.6l117.4,203.4l76.2,132l58.4,101.1V559.6l-8.8-15.4l-72.6-125.6   l-44.8-77.6h261.7l-44.8,77.6l-72.6,125.6l-8.8,15.3v217.7l58.3-100.9l76.2-132.1l117.4-203.4l72.6-125.6l0,0L266.2,215.1   L266.2,215.1z"
   id="path2"
   style="fill:#2fa6de;fill-opacity:1" />
</g>
<g
   id="g22"
   style="fill:#2fa6de;fill-opacity:1">
	<path
   fill="#2fa6de"
   d="M304.5,95.2c-6.6,0-12.1-5.3-12.1-12.1S297.8,71,304.5,71c6.6,0,12.1,5.3,12.1,12.1v4.1h18.7v-4.1   c0-16.8-13.8-30.6-30.6-30.6s-30.6,13.8-30.6,30.6s13.8,30.6,30.7,30.6c11.5,0,20.9,9.4,20.9,20.9c0,11.5-9.4,20.9-20.9,20.9   c-11.5,0-21.2-9.3-21.2-20.8v-4.1H265v4.1c0,21.8,17.7,39.6,39.6,39.6s39.4-17.8,39.4-39.6S326.3,95.2,304.5,95.2z"
   id="path6"
   style="fill:#2fa6de;fill-opacity:1" />
	<polygon
   fill="#2fa6de"
   points="350.3,71.3 380.5,71.3 380.5,174.3 399.2,174.3 399.2,71.3 429.3,71.3 429.3,52.6 350.3,52.6  "
   id="polygon8"
   style="fill:#2fa6de;fill-opacity:1" />
	<path
   fill="#2fa6de"
   d="M503,134.7c0,11.5-9.4,20.9-20.9,20.9c-11.5,0-20.9-9.4-20.9-20.9V52.6h-18.7v82.3   c0,21.8,17.7,39.6,39.6,39.6c21.9,0,39.6-17.7,39.6-39.6V52.6H503V134.7z"
   id="path10"
   style="fill:#2fa6de;fill-opacity:1" />
	<path
   fill="#2fa6de"
   d="M553.3,52.6h-18.2v121.7h18.2c33.6,0,60.9-27.4,60.9-60.9S586.9,52.6,553.3,52.6z M576.9,148.5   c-5.6,3.8-16,7-23.2,7.2V71.3c2.2,0,5.9,0.4,8,0.8c4.5,0.8,11.4,3.8,15.2,6.3c3.6,2.5,9,7.7,11.5,11.5c1.3,1.8,2.9,5.1,3.9,7.2   c0.8,2.1,2,5.8,2.5,8c0.4,2.2,0.8,6.2,0.8,8.4c0,2.2-0.4,6.2-0.8,8.4c-0.4,2.2-1.5,5.9-2.5,8c-0.8,2-2.7,5.3-3.8,7.2   C585.9,140.6,580.5,146,576.9,148.5z"
   id="path12"
   style="fill:#2fa6de;fill-opacity:1" />
	<rect
   x="627.4"
   y="52.6"
   fill="#2fa6de"
   width="18.7"
   height="121.7"
   id="rect14"
   style="fill:#2fa6de;fill-opacity:1" />
	<path
   fill="#2fa6de"
   d="M706.2,52.6c-25.7,0-46.6,20.9-46.6,46.6v28.5c0,25.7,20.9,46.6,46.6,46.6s46.6-20.9,46.6-46.6V99.2   C752.8,73.5,731.9,52.6,706.2,52.6z M734.1,99.2v28.5c0,15.4-12.5,27.9-27.9,27.9s-27.9-12.5-27.9-28.1V99.2   c0-15.4,12.5-27.9,27.9-27.9C721.5,71.2,734.1,83.8,734.1,99.2z"
   id="path16"
   style="fill:#2fa6de;fill-opacity:1" />
	<polygon
   fill="#2fa6de"
   points="766.1,71.3 811.2,71.3 764.2,174.3 784.4,174.3 840.2,52.6 766.1,52.6  "
   id="polygon18"
   style="fill:#2fa6de;fill-opacity:1" />
	<polygon
   fill="#2fa6de"
   points="851.3,52.6 851.3,71.3 896.5,71.3 849.5,174.3 869.7,174.3 925.6,52.6  "
   id="polygon20"
   style="fill:#2fa6de;fill-opacity:1" />
</g>
</svg>